<svg width="40" height="40" viewBox="0 0 40 40" fill="none" xmlns="http://www.w3.org/2000/svg">
<path d="M15.0273 5.37158H6.84374C5.93981 5.37158 5.20703 6.10436 5.20703 7.00829V18.4652C5.20703 19.3692 5.93981 20.1019 6.84374 20.1019H15.0273C15.9312 20.1019 16.664 19.3692 16.664 18.4652V7.00829C16.664 6.10436 15.9312 5.37158 15.0273 5.37158Z" stroke="black" stroke-width="3.27341" stroke-linecap="round" stroke-linejoin="round"/>
<path d="M33.0312 5.37158H24.8476C23.9437 5.37158 23.2109 6.10436 23.2109 7.00829V11.9184C23.2109 12.8223 23.9437 13.5551 24.8476 13.5551H33.0312C33.9351 13.5551 34.6679 12.8223 34.6679 11.9184V7.00829C34.6679 6.10436 33.9351 5.37158 33.0312 5.37158Z" stroke="black" stroke-width="3.27341" stroke-linecap="round" stroke-linejoin="round"/>
<path d="M33.0312 20.1021H24.8476C23.9437 20.1021 23.2109 20.8348 23.2109 21.7388V33.1957C23.2109 34.0996 23.9437 34.8324 24.8476 34.8324H33.0312C33.9351 34.8324 34.6679 34.0996 34.6679 33.1957V21.7388C34.6679 20.8348 33.9351 20.1021 33.0312 20.1021Z" stroke="black" stroke-width="3.27341" stroke-linecap="round" stroke-linejoin="round"/>
<path d="M15.0273 26.6489H6.84374C5.93981 26.6489 5.20703 27.3817 5.20703 28.2856V33.1957C5.20703 34.0997 5.93981 34.8325 6.84374 34.8325H15.0273C15.9312 34.8325 16.664 34.0997 16.664 33.1957V28.2856C16.664 27.3817 15.9312 26.6489 15.0273 26.6489Z" stroke="black" stroke-width="3.27341" stroke-linecap="round" stroke-linejoin="round"/>
</svg>
