<svg width="40" height="40" viewBox="0 0 40 40" fill="none" xmlns="http://www.w3.org/2000/svg">
<path d="M24.8476 34.5748V21.4812C24.8476 21.0471 24.6751 20.6308 24.3682 20.3239C24.0613 20.0169 23.645 19.8445 23.2109 19.8445H16.664C16.23 19.8445 15.8137 20.0169 15.5067 20.3239C15.1998 20.6308 15.0273 21.0471 15.0273 21.4812V34.5748" stroke="black" stroke-width="3.27341" stroke-linecap="round" stroke-linejoin="round"/>
<path d="M5.20703 16.5711C5.20692 16.0949 5.31069 15.6244 5.51111 15.1925C5.71153 14.7606 6.00378 14.3775 6.36746 14.0702L17.8244 4.25158C18.4152 3.75224 19.1638 3.47827 19.9374 3.47827C20.711 3.47827 21.4595 3.75224 22.0504 4.25158L33.5073 14.0702C33.871 14.3775 34.1632 14.7606 34.3637 15.1925C34.5641 15.6244 34.6678 16.0949 34.6677 16.5711V31.3014C34.6677 32.1696 34.3229 33.0022 33.709 33.6161C33.0951 34.2299 32.2625 34.5748 31.3943 34.5748H8.48044C7.61228 34.5748 6.77967 34.2299 6.16579 33.6161C5.55191 33.0022 5.20703 32.1696 5.20703 31.3014V16.5711Z" stroke="black" stroke-width="3.27341" stroke-linecap="round" stroke-linejoin="round"/>
</svg>
